# Blender 3.4.1
# www.blender.org
mtllib propeller.mtl
o uploads_files_2532780_Gamecock.001
v -0.115365 -0.116765 1.866091
v -0.116765 0.115365 1.866091
v -0.163854 -0.192776 1.609946
v -0.192776 0.163854 1.609946
v 0.192776 -0.163854 1.609946
v 0.163854 0.192776 1.609946
v 0.116765 -0.115365 1.866091
v 0.115365 0.116764 1.866091
v -0.027080 0.244524 1.610097
v 0.027080 -0.244524 1.610097
v 0.244524 0.027080 1.610097
v -0.244524 -0.027080 1.610097
v 0.175441 0.018951 1.828259
v -0.008893 0.140515 1.902951
v -0.140515 -0.008893 1.902951
v 0.008893 -0.140515 1.902951
v 0.061170 -0.014396 1.953058
v 0.114319 -0.067545 1.634698
v 0.121248 0.057440 1.755806
v 0.115012 0.086302 1.639121
v 0.746299 -0.085636 1.728060
v 0.560578 -0.069489 1.781541
v 0.541011 0.129415 1.607878
v 0.130438 0.007779 1.769936
v 0.129719 0.002996 1.623417
v 1.423563 -0.034290 1.704553
v 0.113724 -0.073695 1.749788
v 1.361073 0.063987 1.678302
v 0.264805 -0.024851 1.672997
v -0.114319 0.067545 1.634698
v -0.121248 -0.057441 1.755806
v -0.115012 -0.086302 1.639121
v -0.746299 0.085636 1.728060
v -0.560578 0.069489 1.781541
v -0.541011 -0.129415 1.607878
v -0.130438 -0.007779 1.769936
v -0.129719 -0.002997 1.623417
v -1.084484 -0.093880 1.664980
v -1.423563 0.034289 1.704553
v -0.113724 0.073695 1.749788
v -1.399026 -0.052157 1.679036
v -0.264805 0.024851 1.672997
v 0.000737 0.031231 1.999541
v 0.000000 -0.000000 2.001315
v 0.022926 -0.019923 1.999338
v 0.025024 -0.000000 2.001315
v 0.023515 -0.008559 2.001315
v -0.012512 0.021672 2.001315
v -0.030609 -0.013079 1.591316
v -0.004345 0.024644 2.001315
v 0.019170 -0.016085 2.001315
v -0.012514 0.029543 1.591316
v 0.012512 -0.021672 2.001315
v 0.004345 0.024644 2.001315
v -0.000467 -0.029713 1.999234
v 0.004345 -0.024644 2.001315
v 0.035737 -0.010678 1.591316
v -0.004345 -0.024644 2.001315
v 0.012512 0.021672 2.001315
v -0.019506 -0.022386 1.999328
v -0.012512 -0.021672 2.001315
v 0.028787 0.009826 1.999173
v -0.019170 -0.016085 2.001315
v 0.019170 0.016085 2.001315
v -0.030629 0.006149 1.999541
v -0.023515 -0.008559 2.001315
v -0.025024 -0.000000 2.001315
v 0.023515 0.008559 2.001315
v -0.023515 0.008559 2.001315
v -0.019170 0.016085 2.001315
vn 0.1671 0.9276 0.3341
vn 0.3116 0.8736 0.3737
vn 0.3353 0.8889 0.3121
vn -0.4781 0.8034 0.3548
vn -0.3346 0.8930 0.3010
vn -0.5105 0.8107 0.2866
vn -0.1671 -0.9276 0.3341
vn -0.3116 -0.8736 0.3737
vn -0.3353 -0.8889 0.3121
vn 0.4781 -0.8034 0.3548
vn 0.3346 -0.8930 0.3010
vn 0.5105 -0.8107 0.2866
vn 0.8034 0.4781 0.3548
vn 0.8930 0.3346 0.3010
vn 0.8107 0.5105 0.2866
vn 0.9276 -0.1671 0.3341
vn 0.8736 -0.3116 0.3737
vn 0.8889 -0.3353 0.3121
vn -0.3353 0.1549 0.9293
vn -0.1317 0.1376 0.9817
vn -0.2116 0.3202 0.9234
vn -0.2091 -0.3802 0.9009
vn -0.1402 -0.2079 0.9680
vn -0.3497 -0.2264 0.9091
vn -0.9276 0.1671 0.3341
vn -0.8736 0.3116 0.3737
vn -0.8889 0.3353 0.3121
vn -0.8034 -0.4781 0.3548
vn -0.8930 -0.3346 0.3010
vn -0.8107 -0.5105 0.2866
vn 0.1175 0.1357 0.9838
vn 0.1656 0.3522 0.9212
vn 0.0288 0.2056 0.9782
vn -0.0511 0.9236 0.3800
vn -0.1463 0.8077 0.5711
vn -0.0104 0.8953 0.4453
vn 0.1522 -0.6641 -0.7320
vn -0.2057 -0.9540 -0.2182
vn 0.0577 -0.6789 -0.7319
vn -0.1660 -0.7674 0.6193
vn -0.2307 -0.9712 -0.0600
vn 0.2002 -0.9743 -0.1035
vn -0.0098 0.7828 0.6222
vn 0.1109 0.8520 0.5117
vn 0.0771 0.9010 0.4269
vn -0.0512 -0.5635 0.8245
vn 0.0086 -0.0952 0.9954
vn -0.0278 -0.0776 0.9966
vn -0.2708 0.1048 -0.9569
vn -0.1198 0.5123 -0.8504
vn -0.0072 0.4677 -0.8839
vn -0.1010 -0.1336 0.9859
vn -0.1749 -0.3351 0.9258
vn -0.0281 -0.2070 0.9779
vn 0.0511 -0.9236 0.3800
vn 0.1463 -0.8077 0.5711
vn 0.0104 -0.8953 0.4453
vn -0.1522 0.6641 -0.7320
vn 0.2057 0.9540 -0.2182
vn -0.0577 0.6789 -0.7319
vn 0.1660 0.7674 0.6193
vn 0.2307 0.9712 -0.0600
vn -0.2002 0.9743 -0.1035
vn 0.0086 0.3761 -0.9266
vn 0.0784 0.2574 -0.9631
vn 0.0262 0.3289 -0.9440
vn 0.0281 -0.8050 0.5926
vn -0.0908 -0.8730 0.4792
vn -0.0599 -0.9173 0.3937
vn 0.0512 0.5635 0.8245
vn -0.0086 0.0952 0.9954
vn 0.0278 0.0776 0.9966
vn 0.2708 -0.1048 -0.9569
vn 0.1198 -0.5123 -0.8504
vn 0.0072 -0.4677 -0.8839
vn 0.1922 -0.0000 0.9814
vn -0.0000 -0.0000 1.0000
vn 0.1806 -0.0658 0.9814
vn -0.0961 0.1665 0.9814
vn -0.0334 0.1893 0.9814
vn 0.1807 -0.0657 0.9813
vn 0.1473 -0.1236 0.9813
vn 0.1473 -0.1236 0.9814
vn 0.0961 -0.1665 0.9814
vn 0.0334 0.1893 0.9814
vn 0.0334 -0.1893 0.9814
vn 0.6307 0.7388 0.2376
vn 0.7635 0.6458 -0.0085
vn 0.4970 0.8675 -0.0210
vn -0.0334 -0.1893 0.9814
vn 0.0961 0.1665 0.9814
vn 0.0075 -0.9760 0.2175
vn -0.1378 -0.9899 -0.0344
vn 0.2088 -0.9774 -0.0323
vn -0.0961 -0.1665 0.9814
vn -0.1473 -0.1236 0.9814
vn 0.1473 0.1236 0.9814
vn -0.1472 -0.1236 0.9814
vn -0.1806 -0.0657 0.9814
vn -0.1807 -0.0657 0.9814
vn -0.1922 -0.0000 0.9814
vn 0.1472 0.1236 0.9814
vn 0.1806 0.0657 0.9814
vn -0.1806 0.0658 0.9814
vn -0.8841 0.3995 0.2423
vn -0.8387 0.5445 -0.0101
vn -0.9743 0.2250 -0.0131
vn -0.1807 0.0657 0.9813
vn -0.1473 0.1236 0.9813
vn 0.1807 0.0657 0.9814
vn -0.1473 0.1236 0.9814
vn 0.1742 0.0714 0.9821
vn 0.5777 -0.0930 0.8109
vn 0.1317 0.2151 0.9677
vn 0.8644 -0.4085 0.2931
vn 0.7310 0.0163 0.6822
vn 0.6879 -0.0618 0.7232
vn 0.5868 -0.3619 0.7244
vn 0.2306 0.0062 0.9730
vn 0.1265 -0.1033 0.9866
vn 0.5711 -0.1359 0.8096
vn 0.1286 -0.0907 0.9875
vn 0.0282 -0.2153 0.9761
vn 0.1132 -0.4784 0.8708
vn 0.0549 -0.8455 0.5311
vn 0.5534 -0.6448 0.5272
vn 0.1850 -0.6634 0.7250
vn 0.0978 -0.2070 0.9735
vn -0.0906 -0.2035 0.9749
vn -0.4476 -0.6702 0.5920
vn -0.0108 -0.4284 0.9035
vn -0.0918 -0.3548 0.9304
vn -0.1908 -0.0871 0.9778
vn -0.5760 -0.3409 0.7429
vn -0.0487 -0.2117 0.9761
vn -0.7484 -0.5929 0.2974
vn -0.6246 -0.3371 0.7044
vn -0.9503 -0.0717 0.3029
vn -0.6812 0.3933 -0.6175
vn -0.6640 0.7102 -0.2339
vn -0.2358 0.7472 -0.6213
vn -0.0675 0.6813 0.7289
vn -0.2001 0.1609 0.9665
vn -0.0876 0.1550 0.9840
vn -0.2670 0.3872 0.8825
vn 0.0641 0.1249 0.9901
vn 0.1843 0.1272 0.9746
vn 0.7474 0.6643 0.0065
vn 0.3562 0.8450 -0.3989
vn 0.6906 0.7210 0.0564
vn 0.1946 0.9416 0.2748
vn 0.1891 0.9204 0.3421
vn 0.3542 0.8900 0.2870
vn -0.4194 0.8516 0.3145
vn -0.2357 0.9000 0.3667
vn -0.2493 0.9236 0.2914
vn -0.1946 -0.9416 0.2748
vn -0.1891 -0.9204 0.3421
vn -0.3542 -0.8900 0.2870
vn 0.4194 -0.8516 0.3145
vn 0.2357 -0.9000 0.3667
vn 0.2493 -0.9236 0.2914
vn 0.8091 0.5099 0.2922
vn 0.8937 0.3323 0.3015
vn 0.9044 0.3475 0.2476
vn 0.6886 0.2764 0.6704
vn 0.6433 0.1023 0.7588
vn 0.7674 0.1118 0.6314
vn 0.6744 -0.1163 0.7292
vn 0.7323 -0.2348 0.6393
vn 0.7973 -0.0727 0.5991
vn 0.9379 -0.2488 0.2417
vn 0.9260 -0.2383 0.2927
vn 0.8724 -0.4056 0.2728
vn 0.4186 0.4583 0.7841
vn 0.2340 0.4930 0.8380
vn 0.3298 0.3149 0.8900
vn -0.4373 0.3971 0.8069
vn -0.4221 0.2198 0.8795
vn -0.2706 0.3835 0.8830
vn -0.3971 -0.4373 0.8069
vn -0.2198 -0.4221 0.8795
vn -0.3835 -0.2706 0.8830
vn 0.4645 -0.5066 0.7264
vn 0.3761 -0.3679 0.8504
vn 0.2879 -0.5437 0.7884
vn -0.9416 0.1946 0.2748
vn -0.9204 0.1891 0.3421
vn -0.8900 0.3542 0.2870
vn -0.8516 -0.4194 0.3145
vn -0.9000 -0.2357 0.3667
vn -0.9236 -0.2493 0.2914
vn 0.9934 0.1119 -0.0252
vn 0.9828 0.1703 0.0711
vn 0.9832 0.1801 0.0312
vn -0.0450 0.2561 0.9656
vn 0.0575 0.4372 0.8975
vn -0.0295 0.4809 0.8763
vn 0.3050 -0.5450 0.7810
vn -0.0922 -0.5730 0.8144
vn 0.2446 -0.9597 0.1386
vn 0.0356 -0.2607 -0.9648
vn -0.0180 -0.2421 -0.9701
vn -0.0002 -0.3124 -0.9500
vn 0.0356 -0.4763 -0.8786
vn 0.0326 -0.5002 -0.8653
vn 0.1432 -0.3642 -0.9203
vn 0.0471 -0.5023 -0.8634
vn 0.1458 -0.5491 -0.8229
vn 0.0892 -0.6852 -0.7229
vn 0.0538 -0.4861 -0.8722
vn 0.0259 -0.3883 -0.9212
vn 0.1029 -0.3670 -0.9245
vn 0.4558 -0.4489 -0.7686
vn 0.3693 -0.4969 -0.7854
vn 0.3013 -0.0666 -0.9512
vn 0.3168 -0.9476 -0.0414
vn 0.3150 -0.9399 -0.1315
vn 0.3328 -0.9300 -0.1560
vn -0.9934 -0.1119 -0.0252
vn -0.9828 -0.1704 0.0711
vn -0.9832 -0.1801 0.0312
vn 0.0448 -0.2643 0.9634
vn -0.0592 -0.4440 0.8941
vn 0.0276 -0.4881 0.8723
vn -0.0134 -0.5362 0.8440
vn -0.1173 -0.4813 0.8687
vn -0.0497 -0.5591 0.8276
vn -0.3050 0.5450 0.7810
vn 0.0922 0.5730 0.8144
vn -0.2446 0.9597 0.1386
vn -0.0373 0.2811 -0.9590
vn 0.0132 0.2621 -0.9650
vn 0.0032 0.3332 -0.9428
vn -0.0356 0.4763 -0.8786
vn -0.0326 0.5002 -0.8653
vn -0.1432 0.3642 -0.9203
vn -0.0471 0.5023 -0.8634
vn -0.1458 0.5491 -0.8229
vn -0.0892 0.6852 -0.7229
vn -0.0849 0.4636 -0.8820
vn -0.0513 0.3679 -0.9285
vn -0.1191 0.3409 -0.9325
vn -0.4558 0.4489 -0.7686
vn -0.3693 0.4969 -0.7854
vn -0.3013 0.0666 -0.9512
vn -0.3168 0.9476 -0.0414
vn -0.3150 0.9399 -0.1315
vn -0.3328 0.9300 -0.1560
vn 0.9756 -0.0136 0.2191
vn 0.9084 -0.3545 0.2215
vn 0.9392 -0.3378 -0.0613
vn 0.5266 -0.8279 0.1929
vn 0.2073 -0.9614 0.1807
vn 0.2479 -0.9629 -0.1070
vn -0.1809 -0.9670 0.1794
vn -0.5029 -0.8432 0.1900
vn -0.4977 -0.8626 -0.0905
vn 0.4444 0.8816 0.1592
vn 0.7215 0.6707 0.1720
vn 0.7199 0.6862 -0.1048
vn -0.8330 -0.5114 0.2112
vn -0.9592 -0.1876 0.2114
vn -0.9728 -0.2197 -0.0728
vn -0.7389 0.6408 0.2085
vn -0.4657 0.8592 0.2121
vn -0.4981 0.8644 -0.0693
vn 0.1656 0.0712 0.9836
vn 0.2223 -0.0786 0.9718
vn 0.4266 0.4283 0.7966
vn 0.8018 -0.4418 0.4023
vn 0.9161 0.0947 0.3895
vn 0.5939 -0.1854 0.7829
vn 0.2707 -0.3462 0.8982
vn 0.1607 -0.3427 0.9256
vn 0.0946 -0.8089 0.5803
vn -0.5060 -0.5766 0.6415
vn -0.0557 -0.7821 0.6207
vn -0.1758 -0.3051 0.9360
vn -0.5763 -0.5260 0.6255
vn -0.2854 -0.1351 0.9488
vn -0.3762 -0.0624 0.9244
vn -0.1933 -0.1691 0.9665
vn -0.1679 -0.0593 0.9840
vn -0.6827 0.0518 0.7289
vn -0.0944 -0.0770 0.9925
vn -0.0594 0.0932 0.9939
vn -0.5903 -0.0834 0.8029
vn -0.1119 0.0848 0.9901
vn -0.0933 0.2036 0.9746
vn -0.4277 -0.1957 0.8825
vn -0.7703 0.4975 -0.3989
vn -0.5902 0.8053 0.0564
vn -0.5244 0.8514 0.0064
vn -0.0922 0.0796 0.9925
vn 0.0815 0.0747 0.9939
vn -0.1846 0.5668 0.8029
vn 0.4496 0.6971 0.5585
vn 0.7989 0.5915 0.1089
vn 0.3509 0.9281 0.1245
vt 0.230820 0.216209
vt 0.230470 0.236426
vt 0.252648 0.188304
vt 0.258368 0.258263
vt 0.182683 0.194024
vt 0.188404 0.263983
vt 0.210581 0.215861
vt 0.210231 0.236078
vt 0.225862 0.275017
vt 0.215189 0.177270
vt 0.171648 0.231480
vt 0.269403 0.220807
vt 0.202432 0.228063
vt 0.220274 0.237814
vt 0.232218 0.226392
vt 0.220777 0.214473
vt 0.215998 0.225055
vt 0.103520 0.254369
vt 0.132427 0.255164
vt 0.138187 0.253746
vt 0.118126 0.384551
vt 0.106650 0.360306
vt 0.148058 0.351409
vt 0.117770 0.258112
vt 0.119250 0.257483
vt 0.121846 0.554843
vt 0.102051 0.254326
vt 0.135074 0.543314
vt 0.112547 0.289064
vt 0.103361 0.253919
vt 0.132270 0.254669
vt 0.138028 0.253241
vt 0.118175 0.384077
vt 0.106660 0.359851
vt 0.148054 0.350888
vt 0.117617 0.257639
vt 0.119097 0.257009
vt 0.143002 0.479099
vt 0.122166 0.554364
vt 0.101892 0.253878
vt 0.134302 0.551777
vt 0.112444 0.288600
vt 0.652966 0.050582
vt 0.653681 0.042487
vt 0.652972 0.037078
vt 0.653681 0.042487
vt 0.653681 0.039897
vt 0.653681 0.049044
vt 0.527051 0.039385
vt 0.653681 0.049943
vt 0.653681 0.037620
vt 0.527051 0.050217
vt 0.653681 0.035930
vt 0.653681 0.049943
vt 0.652972 0.033875
vt 0.653681 0.035031
vt 0.527051 0.040942
vt 0.653681 0.035031
vt 0.653681 0.049044
vt 0.652983 0.035900
vt 0.653681 0.035930
vt 0.652954 0.045295
vt 0.653681 0.037620
vt 0.653681 0.047354
vt 0.652966 0.043973
vt 0.653681 0.039897
vt 0.653681 0.042487
vt 0.653681 0.045076
vt 0.653681 0.045076
vt 0.653681 0.047354
s 0
usemtl Bits
f 9/9/1 8/8/2 6/6/3
f 2/2/4 9/9/5 4/4/6
f 10/10/7 1/1/8 3/3/9
f 7/7/10 10/10/11 5/5/12
f 8/8/13 11/11/14 6/6/15
f 11/11/16 7/7/17 5/5/18
f 15/15/19 17/17/20 14/14/21
f 16/16/22 17/17/23 15/15/24
f 12/12/25 2/2/26 4/4/27
f 1/1/28 12/12/29 3/3/30
f 26/26/31 28/28/32 22/22/33
f 20/20/34 24/24/35 23/23/36
f 21/21/37 27/27/38 29/29/39
f 22/22/40 27/27/41 21/21/42
f 24/24/43 28/28/44 23/23/45
f 27/27/46 22/22/47 24/24/48
f 25/25/49 20/20/50 23/23/51
f 39/39/52 41/41/53 34/34/54
f 32/32/55 36/36/56 35/35/57
f 33/33/58 40/40/59 42/42/60
f 34/34/61 40/40/62 33/33/63
f 33/33/64 38/38/65 41/41/66
f 36/36/67 38/38/68 35/35/69
f 40/40/70 34/34/71 36/36/72
f 37/37/73 32/32/74 35/35/75
f 46/46/76 44/44/77 47/47/78
f 48/48/79 44/44/77 50/50/80
f 47/47/81 44/44/77 51/51/82
f 51/51/83 44/44/77 53/53/84
f 50/50/80 44/44/77 54/54/85
f 53/53/84 44/44/77 56/56/86
f 43/43/87 57/57/88 52/52/89
f 56/56/86 44/44/77 58/58/90
f 54/54/85 44/44/77 59/59/91
f 55/55/92 49/49/93 57/57/94
f 58/58/90 44/44/77 61/61/95
f 61/61/95 44/44/77 63/63/96
f 59/59/91 44/44/77 64/64/97
f 63/63/98 44/44/77 66/66/99
f 66/66/100 44/44/77 67/67/101
f 64/64/102 44/44/77 68/68/103
f 67/67/101 44/44/77 69/69/104
f 65/65/105 52/52/106 49/49/107
f 69/69/108 44/44/77 70/70/109
f 68/68/110 44/44/77 46/46/76
f 70/70/111 44/44/77 48/48/79
f 68/68/112 62/62/113 64/64/114
f 45/45/115 46/46/116 47/47/117
f 45/45/118 47/47/119 51/51/120
f 45/45/121 51/51/122 53/53/123
f 53/53/124 55/55/125 45/45/126
f 55/55/127 56/56/128 58/58/129
f 60/60/130 58/58/131 61/61/132
f 63/63/133 60/60/134 61/61/135
f 60/60/136 66/66/137 65/65/138
f 65/65/139 48/48/140 43/43/141
f 43/43/142 48/48/143 50/50/144
f 43/43/145 54/54/146 59/59/147
f 64/64/148 43/43/149 59/59/150
f 46/46/76 44/44/77 47/47/78
f 48/48/79 44/44/77 50/50/80
f 47/47/81 44/44/77 51/51/82
f 51/51/83 44/44/77 53/53/84
f 50/50/80 44/44/77 54/54/85
f 53/53/84 44/44/77 56/56/86
f 56/56/86 44/44/77 58/58/90
f 54/54/85 44/44/77 59/59/91
f 58/58/90 44/44/77 61/61/95
f 61/61/95 44/44/77 63/63/96
f 59/59/91 44/44/77 64/64/97
f 63/63/98 44/44/77 66/66/99
f 66/66/100 44/44/77 67/67/101
f 64/64/102 44/44/77 68/68/103
f 67/67/101 44/44/77 69/69/104
f 69/69/108 44/44/77 70/70/109
f 68/68/110 44/44/77 46/46/76
f 70/70/111 44/44/77 48/48/79
f 9/9/151 14/14/152 8/8/153
f 2/2/154 14/14/155 9/9/156
f 10/10/157 16/16/158 1/1/159
f 7/7/160 16/16/161 10/10/162
f 8/8/163 13/13/164 11/11/165
f 8/8/166 17/17/167 13/13/168
f 17/17/169 7/7/170 13/13/171
f 11/11/172 13/13/173 7/7/174
f 8/8/175 14/14/176 17/17/177
f 2/2/178 15/15/179 14/14/180
f 1/1/181 16/16/182 15/15/183
f 7/7/184 17/17/185 16/16/186
f 12/12/187 15/15/188 2/2/189
f 1/1/190 15/15/191 12/12/192
f 19/19/193 24/24/194 20/20/195
f 22/22/196 28/28/197 24/24/198
f 26/26/199 22/22/200 21/21/201
f 21/21/202 28/28/203 26/26/204
f 21/21/205 29/29/206 23/23/207
f 25/25/208 23/23/209 29/29/210
f 21/21/211 23/23/212 28/28/213
f 29/29/214 18/18/215 25/25/216
f 18/18/217 29/29/218 27/27/219
f 31/31/220 36/36/221 32/32/222
f 34/34/223 41/41/224 36/36/225
f 36/36/226 41/41/227 38/38/228
f 39/39/229 34/34/230 33/33/231
f 33/33/232 41/41/233 39/39/234
f 33/33/235 42/42/236 35/35/237
f 37/37/238 35/35/239 42/42/240
f 33/33/241 35/35/242 38/38/243
f 42/42/244 30/30/245 37/37/246
f 30/30/247 42/42/248 40/40/249
f 62/62/250 45/45/251 57/57/252
f 45/45/253 55/55/254 57/57/255
f 55/55/256 60/60/257 49/49/258
f 43/43/259 62/62/260 57/57/261
f 60/60/262 65/65/263 49/49/264
f 65/65/265 43/43/266 52/52/267
f 68/68/268 46/46/269 62/62/270
f 45/45/271 62/62/272 46/46/273
f 53/53/274 56/56/275 55/55/276
f 60/60/277 55/55/278 58/58/279
f 60/60/280 63/63/281 66/66/282
f 66/66/283 67/67/284 65/65/285
f 67/67/286 69/69/287 65/65/288
f 69/69/289 70/70/290 65/65/291
f 65/65/292 70/70/293 48/48/294
f 50/50/295 54/54/296 43/43/297
f 64/64/298 62/62/299 43/43/300
